<svg width="24" height="22" viewBox="0 0 24 22" fill="none" xmlns="http://www.w3.org/2000/svg">
<path fill-rule="evenodd" clip-rule="evenodd" d="M23.6023 6.33824L12.3523 0.338244C12.1319 0.220911 11.8676 0.220911 11.6473 0.338244L0.397266 6.33824C0.152753 6.46855 0 6.72305 0 7.00012C0 7.27719 0.152753 7.53169 0.397266 7.66199L2.99977 9.05043V13.5898C2.99899 13.9582 3.13457 14.3139 3.38039 14.5882C4.60852 15.9561 7.36008 18.2501 11.9998 18.2501C13.5382 18.2628 15.065 17.9842 16.4998 17.4289V20.5001C16.4998 20.9143 16.8356 21.2501 17.2498 21.2501C17.664 21.2501 17.9998 20.9143 17.9998 20.5001V16.7042C18.9778 16.1396 19.8616 15.4257 20.6191 14.5882C20.865 14.3139 21.0005 13.9582 20.9998 13.5898V9.05043L23.6023 7.66199C23.8468 7.53169 23.9995 7.27719 23.9995 7.00012C23.9995 6.72305 23.8468 6.46855 23.6023 6.33824ZM11.9998 16.7501C7.9432 16.7501 5.55727 14.7682 4.49977 13.5898V9.85012L11.6473 13.662C11.8676 13.7793 12.1319 13.7793 12.3523 13.662L16.4998 11.4504V15.7948C15.3185 16.3461 13.8298 16.7501 11.9998 16.7501ZM19.4998 13.5861C19.0502 14.0849 18.5472 14.5329 17.9998 14.922V10.6498L19.4998 9.85012V13.5861ZM17.6248 9.15074L17.6041 9.13856L12.3541 6.33824C11.9897 6.15211 11.5434 6.29244 11.351 6.65361C11.1587 7.01478 11.2913 7.46348 11.6491 7.66199L16.031 10.0001L11.9998 12.1498L2.34352 7.00012L11.9998 1.85043L21.656 7.00012L17.6248 9.15074Z" fill="#121217"/>
</svg>
