<svg width="18" height="18" viewBox="0 0 18 18" fill="none" xmlns="http://www.w3.org/2000/svg">
<path fill-rule="evenodd" clip-rule="evenodd" d="M9.89441 14.4713C10.1871 14.7641 10.1871 15.2387 9.89441 15.5316L8.96254 16.4691C6.91037 18.5199 3.58419 18.5189 1.53332 16.4667C-0.517555 14.4146 -0.516506 11.0884 1.53566 9.03751L3.79691 6.77626C5.762 4.8096 8.91957 4.71588 10.9979 6.56251C11.3085 6.83796 11.3371 7.3131 11.0616 7.62376C10.7861 7.93442 10.311 7.96296 10.0004 7.68751C8.51603 6.36937 6.26159 6.43637 4.85816 7.84032L2.59691 10.0988C1.13215 11.5635 1.13215 13.9384 2.59691 15.4031C4.06168 16.8679 6.43653 16.8679 7.90129 15.4031L8.83316 14.4713C8.97384 14.3304 9.16473 14.2513 9.36379 14.2513C9.56285 14.2513 9.75374 14.3304 9.89441 14.4713ZM16.4644 1.53376C14.4122 -0.513858 11.0898 -0.513858 9.03754 1.53376L8.10566 2.46657C7.81287 2.75963 7.81308 3.23456 8.10613 3.52735C8.39919 3.82015 8.87412 3.81994 9.16691 3.52689L10.0988 2.59501C11.5636 1.13025 13.9384 1.13025 15.4032 2.59501C16.8679 4.05977 16.8679 6.43462 15.4032 7.89939L13.1419 10.1625C11.7377 11.5657 9.48332 11.6314 7.99973 10.3125C7.79876 10.1343 7.51801 10.0769 7.26321 10.1618C7.00842 10.2468 6.81829 10.4612 6.76446 10.7243C6.71063 10.9875 6.80126 11.2593 7.00223 11.4375C9.08002 13.2847 12.2376 13.1917 14.2032 11.2256L16.4644 8.96439C18.5133 6.91195 18.5133 3.58807 16.4644 1.53564V1.53376Z" fill="#121217"/>
</svg>
