<svg width="73" height="24" viewBox="0 0 73 24" fill="none" xmlns="http://www.w3.org/2000/svg">
<g clip-path="url(#clip0_95_130)">
<path fill-rule="evenodd" clip-rule="evenodd" d="M14.6667 7.75757C14.6667 8.6703 13.2795 9.46523 11.23 9.8788C13.2795 10.2923 14.6667 11.0873 14.6667 12C14.6667 12.9127 13.2795 13.7077 11.23 14.1212C13.2795 14.5348 14.6667 15.3297 14.6667 16.2424C14.6667 17.5813 11.6819 18.6667 8 18.6667C4.3181 18.6667 1.33333 17.5813 1.33333 16.2424C1.33333 15.3297 2.72048 14.5348 4.77 14.1212C2.72048 13.7077 1.33333 12.9127 1.33333 12C1.33333 11.0873 2.72048 10.2923 4.77 9.8788C2.72048 9.46523 1.33333 8.6703 1.33333 7.75757C1.33333 6.4187 4.3181 5.33333 8 5.33333C11.6819 5.33333 14.6667 6.4187 14.6667 7.75757Z" fill="#121217"/>
</g>
<path d="M33.1378 18.5V5.40909H38.3793C39.3423 5.40909 40.1456 5.55185 40.7891 5.83736C41.4325 6.12287 41.9162 6.51918 42.2401 7.02628C42.5639 7.52912 42.7259 8.10866 42.7259 8.76491C42.7259 9.27628 42.6236 9.72585 42.419 10.1136C42.2145 10.4972 41.9332 10.8125 41.5753 11.0597C41.2216 11.3026 40.8168 11.4751 40.3608 11.5774V11.7053C40.8594 11.7266 41.326 11.8672 41.7607 12.1271C42.1996 12.3871 42.5554 12.7514 42.8281 13.2202C43.1009 13.6847 43.2372 14.2386 43.2372 14.8821C43.2372 15.5767 43.0646 16.1967 42.7195 16.7422C42.3786 17.2834 41.8736 17.7116 41.2045 18.027C40.5355 18.3423 39.7109 18.5 38.7308 18.5H33.1378ZM35.9055 16.2372H38.1619C38.9332 16.2372 39.4957 16.0902 39.8494 15.7962C40.2031 15.4979 40.38 15.1016 40.38 14.6072C40.38 14.245 40.2926 13.9254 40.1179 13.6484C39.9432 13.3714 39.6939 13.1541 39.37 12.9964C39.0504 12.8388 38.669 12.7599 38.2259 12.7599H35.9055V16.2372ZM35.9055 10.8871H37.9574C38.3366 10.8871 38.6733 10.821 38.9673 10.6889C39.2656 10.5526 39.5 10.3608 39.6705 10.1136C39.8452 9.86648 39.9325 9.57031 39.9325 9.22514C39.9325 8.75213 39.7642 8.37074 39.4276 8.08097C39.0952 7.79119 38.6222 7.64631 38.0085 7.64631H35.9055V10.8871ZM49.4615 18.6918C48.4515 18.6918 47.5822 18.4872 46.8535 18.0781C46.1291 17.6648 45.5708 17.081 45.1788 16.3267C44.7868 15.5682 44.5907 14.6712 44.5907 13.6357C44.5907 12.6257 44.7868 11.7393 45.1788 10.9766C45.5708 10.2138 46.1227 9.61932 46.8343 9.19318C47.5502 8.76705 48.3897 8.55398 49.3528 8.55398C50.0005 8.55398 50.6035 8.65838 51.1618 8.86719C51.7243 9.07173 52.2143 9.38068 52.6319 9.79403C53.0538 10.2074 53.3819 10.7273 53.6163 11.3537C53.8507 11.9759 53.9679 12.7045 53.9679 13.5398V14.2876H45.6774V12.6001H51.4047C51.4047 12.2081 51.3194 11.8608 51.149 11.5582C50.9785 11.2557 50.742 11.0192 50.4395 10.8487C50.1412 10.674 49.7939 10.5866 49.3976 10.5866C48.9842 10.5866 48.6177 10.6825 48.2981 10.8743C47.9828 11.0618 47.7356 11.3153 47.5566 11.6349C47.3777 11.9503 47.286 12.3018 47.2818 12.6896V14.294C47.2818 14.7798 47.3713 15.1996 47.5502 15.5533C47.7335 15.907 47.9913 16.1797 48.3237 16.3714C48.6561 16.5632 49.0502 16.6591 49.5062 16.6591C49.8088 16.6591 50.0858 16.6165 50.3372 16.5312C50.5886 16.446 50.8038 16.3182 50.9828 16.1477C51.1618 15.9773 51.2981 15.7685 51.3919 15.5213L53.9103 15.6875C53.7825 16.2926 53.5204 16.821 53.1241 17.2727C52.7321 17.7202 52.225 18.0696 51.6028 18.321C50.9849 18.5682 50.2711 18.6918 49.4615 18.6918ZM60.9672 8.68182V10.7273H55.0545V8.68182H60.9672ZM56.3968 6.32955H59.1199V15.483C59.1199 15.7344 59.1582 15.9304 59.2349 16.071C59.3116 16.2074 59.4181 16.3033 59.5545 16.3587C59.6951 16.4141 59.8571 16.4418 60.0403 16.4418C60.1681 16.4418 60.296 16.4311 60.4238 16.4098C60.5517 16.3842 60.6497 16.3651 60.7179 16.3523L61.1461 18.3786C61.0098 18.4212 60.818 18.4702 60.5708 18.5256C60.3237 18.5852 60.0233 18.6214 59.6696 18.6342C59.0133 18.6598 58.438 18.5724 57.9437 18.3722C57.4537 18.1719 57.0723 17.8608 56.7995 17.4389C56.5268 17.017 56.3926 16.4844 56.3968 15.8409V6.32955ZM65.5407 18.6854C64.9142 18.6854 64.356 18.5767 63.8659 18.3594C63.3759 18.1378 62.9881 17.8118 62.7026 17.3814C62.4213 16.9467 62.2807 16.4055 62.2807 15.7578C62.2807 15.2124 62.3809 14.7543 62.5811 14.3835C62.7814 14.0128 63.0542 13.7145 63.3993 13.4886C63.7445 13.2628 64.1365 13.0923 64.5755 12.9773C65.0186 12.8622 65.4831 12.7812 65.9689 12.7344C66.54 12.6747 67.0002 12.6193 67.3496 12.5682C67.699 12.5128 67.9526 12.4318 68.1103 12.3253C68.2679 12.2187 68.3468 12.0611 68.3468 11.8523V11.8139C68.3468 11.4091 68.2189 11.0959 67.9632 10.8743C67.7118 10.6527 67.3539 10.5419 66.8894 10.5419C66.3993 10.5419 66.0094 10.6506 65.7196 10.8679C65.4299 11.081 65.2381 11.3494 65.1444 11.6733L62.6259 11.4688C62.7537 10.8722 63.0051 10.3565 63.3801 9.92188C63.7551 9.48295 64.2388 9.14631 64.8311 8.91193C65.4277 8.6733 66.1181 8.55398 66.9022 8.55398C67.4476 8.55398 67.9696 8.6179 68.4682 8.74574C68.9711 8.87358 69.4164 9.07173 69.8042 9.3402C70.1962 9.60866 70.5051 9.95384 70.731 10.3757C70.9569 10.7933 71.0698 11.294 71.0698 11.8778V18.5H68.4874V17.1385H68.4107C68.253 17.4453 68.0421 17.7159 67.7779 17.9503C67.5137 18.1804 67.1962 18.3615 66.8255 18.4936C66.4547 18.6214 66.0265 18.6854 65.5407 18.6854ZM66.3205 16.8061C66.7211 16.8061 67.0748 16.7273 67.3816 16.5696C67.6884 16.4077 67.9292 16.1903 68.1039 15.9176C68.2786 15.6449 68.3659 15.3359 68.3659 14.9908V13.9489C68.2807 14.0043 68.1635 14.0554 68.0144 14.1023C67.8695 14.1449 67.7054 14.1854 67.5222 14.2237C67.339 14.2578 67.1557 14.2898 66.9725 14.3196C66.7892 14.3452 66.623 14.3686 66.4739 14.3899C66.1543 14.4368 65.8752 14.5114 65.6365 14.6136C65.3979 14.7159 65.2125 14.8544 65.0804 15.0291C64.9483 15.1996 64.8823 15.4126 64.8823 15.6683C64.8823 16.0391 65.0165 16.3224 65.285 16.5185C65.5577 16.7102 65.9029 16.8061 66.3205 16.8061Z" fill="#121217"/>
<defs>
<clipPath id="clip0_95_130">
<rect width="16" height="16" fill="white" transform="translate(0 4)"/>
</clipPath>
</defs>
</svg>
